<svg width="43" height="25" viewBox="0 0 43 25" fill="none" xmlns="http://www.w3.org/2000/svg">
<path d="M39.0851 8.5362L42.0173 9.29885L42.0333 9.23759L42.0466 9.17572L39.0851 8.5362ZM42.0783 9.0288C42.4315 7.3932 41.3919 5.78096 39.7563 5.42776C38.1207 5.07456 36.5085 6.11415 36.1553 7.74975L42.0783 9.0288ZM22.4202 18.4238C14.5948 18.4238 8.22656 12.0461 8.22656 4.14844H2.167C2.167 15.3656 11.2211 24.4834 22.4202 24.4834V18.4238ZM36.1529 7.77355C34.5561 13.9126 29.0014 18.4238 22.4202 18.4238V24.4834C31.8456 24.4834 39.7477 18.025 42.0173 9.29885L36.1529 7.77355ZM42.0466 9.17572L42.0783 9.0288L36.1553 7.74975L36.1236 7.89667L42.0466 9.17572Z" fill="white"/>
<path d="M15.3977 5.77621C15.0219 4.14566 13.3954 3.1285 11.7648 3.50432C10.1343 3.88013 9.11712 5.50662 9.49294 7.13717L15.3977 5.77621ZM29.6257 4.14844C29.6257 8.12815 26.3995 11.3544 22.4198 11.3544V17.4139C29.7461 17.4139 35.6853 11.4748 35.6853 4.14844H29.6257ZM22.4198 11.3544C19.0027 11.3544 16.1345 8.97299 15.3977 5.77621L9.49294 7.13717C10.8496 13.0231 16.1183 17.4139 22.4198 17.4139V11.3544Z" fill="white"/>
<path d="M9.23494 9.57625L9.3437 9.533L9.41894 9.44334C9.7868 9.00493 10.2486 8.30836 10.4643 7.53987C10.6819 6.7651 10.6611 5.85112 9.9537 5.10755C9.68979 4.79332 9.07795 4.40005 8.24121 4.48892C8.20034 4.31672 8.14013 4.13461 8.05494 3.95834C7.86989 3.57548 7.54077 3.17267 6.99417 3.02147C6.43163 2.78855 5.37489 2.79622 4.53126 3.85158C4.28092 3.771 3.97912 3.71972 3.65555 3.74018C3.12607 3.77366 2.55061 3.99984 2.07676 4.56919C1.70569 4.93142 1.3869 5.73142 1.74752 6.79236C1.55592 6.89586 1.36404 7.04265 1.20166 7.24237C0.867879 7.65287 0.698875 8.23751 0.844595 8.99673C0.860951 9.17735 0.926966 9.37674 1.01686 9.57053C1.11713 9.78667 1.26179 10.0272 1.4527 10.2763C1.83511 10.7752 2.41275 11.3208 3.22023 11.7807L3.41406 11.891L3.62132 11.8086L9.23494 9.57625Z" fill="white" stroke="#6B84C6" stroke-width="0.928041"/>
<path d="M3.10283 11.1619L9.3715 8.73303C9.3715 8.73303 9.24577 9.14944 9.27357 9.41837C9.29844 9.65894 9.46937 10.0059 9.46937 10.0059L3.83155 12.2393C3.83155 12.2393 3.70923 11.8831 3.59257 11.6712C3.47591 11.4592 3.10283 11.1619 3.10283 11.1619Z" fill="white"/>
<path d="M28.5971 7.83333L28.4885 7.78971L28.4135 7.69978C28.0259 7.23458 27.5406 6.49657 27.3157 5.68477C27.0891 4.86673 27.1153 3.90753 27.8607 3.12998C28.139 2.80046 28.7911 2.38427 29.6828 2.49145C29.7264 2.30327 29.7921 2.10294 29.8864 1.90953C30.0823 1.50774 30.4284 1.08833 31 0.932985C31.5892 0.690534 32.7067 0.699631 33.5936 1.83007C33.8603 1.74288 34.1846 1.6869 34.5325 1.71011C35.0878 1.74715 35.6911 1.98644 36.1871 2.58727C36.5742 2.96682 36.9115 3.81542 36.5147 4.94426C36.7219 5.05381 36.9305 5.21158 37.1057 5.42863C37.453 5.85871 37.6291 6.47189 37.4724 7.27124C37.4551 7.45872 37.3856 7.66741 37.2898 7.872C37.1835 8.0991 37.0301 8.35232 36.8275 8.61471C36.4218 9.14025 35.8091 9.71514 34.9531 10.1987L34.7589 10.3084L34.5519 10.2253L28.5971 7.83333Z" fill="white" stroke="#6B84C6" stroke-width="0.928041"/>
<path d="M34.0544 10.5261L28.1776 8.48288C28.1776 8.48288 28.4197 8.0992 28.5694 7.85001C28.8045 7.45843 28.5831 7.16431 28.5831 7.16431L34.838 9.71113C34.838 9.71113 34.5129 9.92159 34.3483 10.1029C34.213 10.2519 34.0544 10.5261 34.0544 10.5261Z" fill="white"/>
</svg>
