<svg width="96" height="56" viewBox="0 0 96 56" fill="none" xmlns="http://www.w3.org/2000/svg">
<path d="M63.7175 7.83785C60.9515 10.6831 63.3461 14.9134 65.0068 16.9065L78.6335 22.3802C82.3017 20.308 83.8103 17.4948 83.8671 16.46C84.5203 13.2744 82.4351 12.0899 81.3109 11.8958C82.7468 9.06951 81.8347 7.19425 81.1991 6.6099C79.3108 4.27202 76.7265 4.87381 75.6703 5.46695C73.8258 2.5352 71.4242 2.67349 70.454 3.10911C68.5452 3.57843 68.0157 5.87017 67.9896 6.95737C65.7573 6.20329 64.2114 7.23016 63.7175 7.83785Z" fill="#5C74F1"/>
<path d="M77.1034 24.0532L63.6553 19.3777C63.6553 19.3777 64.2093 18.4997 64.5517 17.9295C65.0898 17.0334 64.5833 16.3604 64.5833 16.3604L78.8965 22.1884C78.8965 22.1884 78.1526 22.67 77.7758 23.0849C77.4663 23.4258 77.1034 24.0532 77.1034 24.0532Z" fill="#5C74F1"/>
<path d="M6.27529 25.5078L20.6201 19.9497C20.6201 19.9497 20.3324 20.9026 20.396 21.518C20.4529 22.0685 20.8441 22.8625 20.8441 22.8625L7.94284 27.9732C7.94284 27.9732 7.66293 27.1582 7.39598 26.6732C7.12902 26.1881 6.27529 25.5078 6.27529 25.5078Z" fill="#5C74F1"/>
<path fill-rule="evenodd" clip-rule="evenodd" d="M22.4041 21.0703C26.9648 32.0693 37.7999 39.8085 50.4554 39.8085C67.2206 39.8085 80.8115 26.2176 80.8115 9.45243H66.9451C66.9451 18.5594 59.5624 25.9421 50.4554 25.9421C42.636 25.9421 36.0726 20.4927 34.3866 13.1774C33.5266 9.44609 29.8046 7.11847 26.0733 7.97847C24.4785 8.34607 23.14 9.23655 22.1974 10.4272C22.3977 10.5947 22.5713 10.7669 22.7161 10.936C24.659 12.9957 24.6738 15.5135 24.1165 17.4986C23.739 18.8433 23.0747 20.0804 22.4041 21.0703ZM21.4656 18.4781C21.2423 17.7603 21.0449 17.0312 20.8745 16.2917C20.5599 14.9269 20.6718 13.5635 21.1228 12.3408C21.1259 12.3445 21.1289 12.3482 21.1318 12.3519C22.8735 14.1559 22.4241 16.5398 21.4656 18.4781Z" fill="#5C74F1"/>
<path fill-rule="evenodd" clip-rule="evenodd" d="M79.3588 24.4096L79.6658 24.2361C81.7495 23.0591 83.2593 21.6493 84.2734 20.3357C84.779 19.6807 85.1725 19.0352 85.4523 18.4375C85.689 17.9319 85.8966 17.3499 85.9602 16.7672C86.2391 15.299 86.0951 14.0113 85.6299 12.9414C86.98 12.2805 88.5538 12.0521 90.1371 12.394C93.88 13.2022 96.2589 16.8916 95.4507 20.6344L95.3781 20.9706L95.3475 21.1122L95.311 21.2524C90.1174 41.2209 72.0348 55.9999 50.4662 55.9999C26.2441 55.9999 6.41053 37.3627 4.30469 13.6438L18.1167 12.4175C19.5978 29.0999 33.5451 42.1335 50.4662 42.1335C63.0304 42.1335 73.9597 34.9485 79.3588 24.4096ZM80.9581 20.7511C81.2992 19.8186 81.5993 18.866 81.8562 17.8954L81.8967 17.7075C82.1956 16.3238 82.8882 15.1264 83.8317 14.2076C84.0047 14.8138 84.041 15.5591 83.8548 16.467C83.8121 17.2457 82.9471 19.0317 80.9581 20.7511Z" fill="#5C74F1"/>
<path d="M21.1557 12.3573C23.7504 15.0448 21.4823 19.0193 19.9124 20.8903L7.06655 25.9987C3.62006 24.036 2.20909 21.3828 2.15902 20.4085C1.55444 17.4075 3.52123 16.2992 4.58021 16.1201C3.23765 13.4548 4.10247 11.6924 4.70269 11.1444C6.48789 8.94969 8.91881 9.52463 9.91112 10.0864C11.6571 7.33252 13.9175 7.47053 14.8294 7.88377C16.6248 8.33179 17.1158 10.4909 17.1369 11.5145C19.2408 10.8119 20.6927 11.7836 21.1557 12.3573Z" fill="#5C74F1"/>
</svg>
